<svg width="36" height="36" fill="none" xmlns="http://www.w3.org/2000/svg"><g clip-path="url(#clip0)"><path d="M23.297 9.456H12.703a3.07 3.07 0 00-3.066 3.067v10.593a3.07 3.07 0 003.066 3.067h10.594a3.07 3.07 0 003.066-3.067V12.523a3.07 3.07 0 00-3.066-3.067zM18 23.326a5.513 5.513 0 01-5.506-5.507A5.512 5.512 0 0118 12.313a5.512 5.512 0 015.506 5.506A5.513 5.513 0 0118 23.326zm5.683-9.875a1.304 1.304 0 01-1.303-1.302 1.304 1.304 0 111.303 1.303z" fill="#0072A0"/><path d="M18 14.64a3.184 3.184 0 00-3.18 3.179 3.184 3.184 0 003.18 3.18 3.183 3.183 0 003.18-3.18 3.183 3.183 0 00-3.18-3.18z" fill="#0072A0"/><path d="M18 0C8.186 0 .229 7.957.229 17.771S8.186 35.542 18 35.542s17.771-7.957 17.771-17.77C35.771 7.956 27.814 0 18 0zm10.69 23.116a5.399 5.399 0 01-5.393 5.393H12.703a5.4 5.4 0 01-5.393-5.393V12.522a5.4 5.4 0 015.393-5.393h10.594a5.4 5.4 0 015.393 5.393v10.594z" fill="#0072A0"/><path fill="#0072A0" d="M7 5h23v24H7z"/><path d="M23.516 8H11.483A3.487 3.487 0 008 11.483v12.033A3.488 3.488 0 0011.483 27h12.033A3.488 3.488 0 0027 23.516V11.483A3.487 3.487 0 0023.516 8zM17.5 23.755a6.262 6.262 0 01-6.255-6.255 6.262 6.262 0 016.255-6.255 6.262 6.262 0 016.255 6.255 6.262 6.262 0 01-6.255 6.255zm6.456-11.216a1.481 1.481 0 010-2.96c.816 0 1.48.664 1.48 1.48s-.664 1.48-1.48 1.48z" fill="#fff"/><path d="M17.5 13.888a3.616 3.616 0 00-3.612 3.611 3.617 3.617 0 003.612 3.613 3.616 3.616 0 003.611-3.613c0-1.99-1.62-3.61-3.611-3.61z" fill="#fff"/></g><defs><clipPath id="clip0"><path fill="#fff" transform="translate(.229)" d="M0 0h35.542v35.542H0z"/></clipPath></defs></svg>