<svg width="196" height="60" fill="none" xmlns="http://www.w3.org/2000/svg"><path d="M94.665 23.58l-.06-21.109h-4.92l-7.233 12.183L75.04 2.471h-4.915v21.11h5.488V12.632l5.423 8.866h2.654l5.424-9.107.03 11.187h5.523v.001zm20.722-8.142c0-5.397-3.92-8.474-8.745-8.474-5.157 0-8.987 3.498-8.987 8.414 0 4.885 3.769 8.473 9.59 8.473 3.105 0 5.397-.905 6.965-2.654l-3.015-3.136c-1.116.965-2.171 1.417-3.769 1.417-2.111 0-3.529-.965-4.011-2.624h11.881c.03-.452.091-.995.091-1.417v.001zm-8.715-4.402c1.779 0 3.045 1.086 3.347 2.805h-6.694c.332-1.719 1.568-2.805 3.347-2.805zm21.832-2.352c-2.231 0-4.071.754-5.457 2.05.332-2.684 1.809-4.01 5.308-4.643l6.874-1.296L134.445 0l-7.931 1.508c-6.212 1.176-8.926 5.367-8.926 11.76 0 7.45 3.98 10.736 9.438 10.736 5.278 0 9.198-3.105 9.198-7.81 0-4.552-2.895-7.508-7.721-7.508l.001-.002zm-1.447 10.976c-2.019 0-3.377-1.447-3.377-3.438 0-2.11 1.356-3.377 3.377-3.377 1.96 0 3.317 1.235 3.317 3.347 0 1.9-1.205 3.468-3.317 3.468zm28.376-4.222c0-5.397-3.92-8.474-8.744-8.474-5.157 0-8.987 3.498-8.987 8.414 0 4.885 3.769 8.473 9.589 8.473 3.106 0 5.398-.905 6.966-2.654l-3.015-3.136c-1.117.965-2.171 1.417-3.769 1.417-2.111 0-3.529-.965-4.011-2.624h11.881c.03-.452.09-.995.09-1.417v.001zm-8.714-4.402c1.779 0 3.045 1.086 3.347 2.805h-6.695c.331-1.719 1.568-2.805 3.348-2.805zm13.539-3.8l-.241 6.816c-.121 2.805-.333 4.915-2.322 4.915-.212 0-.452-.03-.724-.06l-.241 4.673c1.055.242 1.99.393 2.774.393 4.253 0 5.309-3.8 5.549-9.68l.121-2.503h4.131v11.792h5.73V7.237h-14.777v-.001zm28.225 5.066h-3.889V7.236h-5.7V23.58h8.866c4.643.03 7.418-2.17 7.418-5.79 0-3.468-2.352-5.457-6.695-5.488zm-1.296 7.358l-2.593-.03V15.8h2.593c1.387.03 2.171.573 2.171 1.901 0 1.326-.784 1.96-2.171 1.96zM70.124 33.04v21.11h5.88V37.775h8.021V54.15h5.91V33.04H70.122h.002zm30.667 4.493c-2.563 0-5.337.663-7.207 1.9l1.93 3.89c1.116-.874 2.865-1.417 4.432-1.417 2.261 0 3.377.935 3.468 2.594h-3.257c-5.066 0-7.267 1.87-7.267 4.885 0 2.834 2.17 5.036 6.092 5.036 2.382 0 4.01-.814 4.825-2.382v2.11h5.337v-9.076c0-5.186-3.047-7.54-8.354-7.54h.001zm-.211 13.27c-1.357 0-2.14-.694-2.14-1.66 0-.995.663-1.658 2.502-1.658h2.473v1.417c-.452 1.297-1.568 1.9-2.835 1.9zm22.285-13.27c-2.14 0-3.74.603-4.824 1.9v-1.628h-5.458V60h5.729v-7.298c1.117 1.145 2.655 1.72 4.555 1.72 4.433 0 8.021-3.257 8.021-8.445 0-5.186-3.589-8.444-8.021-8.444h-.002zm-1.206 12.334c-1.93 0-3.438-1.417-3.438-3.89 0-2.472 1.507-3.89 3.438-3.89 1.93 0 3.438 1.418 3.438 3.89 0 2.473-1.508 3.89-3.438 3.89zm23.43 4.283h6.755l-5.85-8.505 5.488-7.841h-6.062l-4.01 6.032h-2.052v-6.032h-5.729v16.344h5.729v-5.82h1.931l3.799 5.82.001.002z" fill="#000"/><path fill-rule="evenodd" clip-rule="evenodd" d="M21.726 7.646c-1.821 0-4.007-.092-5.727.048-1.87.153-3.83 1.089-5.057 2.184-.088.079-.11.079-.199.156-1.82 1.604-3.099 4.262-3.099 6.764v4.886c1.895 0 3.694.586 5.233 1.607a9.283 9.283 0 012.078 1.92c1.162 1.48 2.018 3.465 2.018 5.445v2.71h28.12c0-2.798-.204-4.611 1.29-7.105l1.52-1.944c.127-.105.168-.123.288-.245 1.023-1.047 2.753-1.792 4.16-2.149.54-.136 1.427-.239 2.07-.239v-4.797c0-2.248-.878-4.293-2.126-5.826-.064-.078-.096-.102-.165-.19-.788-1.007-1.986-1.782-3.114-2.35-1.89-.951-3.624-.874-5.745-.874h-2.933c-.073-.273-1.13-1.34-1.364-1.567l-.697-.59c-.174-.136-.309-.233-.482-.363-1.57-1.174-4.242-2.145-6.296-2.145h-.932c-2.459 0-5.02 1.134-6.778 2.506-.173.135-.3.261-.457.387-.228.184-1.517 1.436-1.606 1.77z" fill="#0072A0"/><path fill-rule="evenodd" clip-rule="evenodd" d="M0 31.172c0 1.242.382 2.242 1.06 3.072.437.537.74.731 1.295 1.103v5.508c0 .906-.028 1.855-.002 2.755.06 2.012 1.15 4.368 2.568 5.785.24.24.43.46.702.673.498.389.604.514 1.182.862l.925.497c.157.08.336.142.488.222-.224.966-2.239 2.928-.5 4.675.215.217.389.35.677.478.563.251 1.255.301 1.822.045.36-.163.385-.181.667-.4.378-.29.626-.81.859-1.273l.71-1.42.696-1.438h34.516c.047.201 1.268 2.582 1.392 2.83.244.486.448.955.842 1.289.696.588 1.616.752 2.488.382.29-.122.483-.264.687-.469.466-.467.721-.95.721-1.766 0-.66-.545-1.579-.859-2.206-.097-.195-.297-.538-.34-.727.686-.362.952-.374 1.795-.958 2.315-1.608 3.83-4.125 4.066-7.04.067-.816.003-1.944.003-2.795v-5.552c.476-.112 1.326-1.081 1.625-1.528.812-1.21.987-3.082.3-4.44-.42-.83-.77-1.308-1.518-1.858a4.625 4.625 0 00-.726-.43c-.47-.225-1.178-.451-1.857-.451h-2.622a4.46 4.46 0 00-1.866.444c-.27.136-.486.24-.73.425-1.266.958-1.979 2.245-1.979 3.928v6.885H11.73v-6.796c0-2.056-1.035-3.6-2.65-4.412-.478-.24-1.228-.474-1.926-.474h-2.62c-2.39 0-4.531 2.151-4.531 4.575H0z" fill="#0072A0"/></svg>